<svg viewBox="0 0 138.78 185.68" height="185.68" width="138.78" xmlns="http://www.w3.org/2000/svg" id="Capa_1"><defs><style>.cls-1{fill:#0e1821;}</style></defs><path d="M52.81,80.97c.29-.56.44-1.21.44-1.95s-.15-1.39-.44-1.95c-.29-.56-.74-.99-1.33-1.3-.59-.31-1.35-.46-2.26-.46h-3.17v7.45h3.2c.91,0,1.65-.16,2.25-.47.59-.32,1.03-.76,1.33-1.32M52.45,105.07c.29-.42.44-.93.44-1.51,0-.81-.29-1.46-.85-1.95-.57-.5-1.38-.74-2.42-.74h-3.58v5.53h3.49c.64,0,1.22-.11,1.72-.34.5-.23.9-.55,1.19-.98M52.75,114.76c.6-.51.9-1.18.9-2.02,0-.62-.15-1.16-.45-1.64-.3-.47-.72-.84-1.27-1.11-.55-.27-1.2-.4-1.95-.4h-3.95v5.93h3.84c1.31,0,2.27-.25,2.87-.76M96.32,108.21c0-4.06-3.28-7.35-7.33-7.35s-7.33,3.29-7.33,7.35,3.28,7.35,7.33,7.35,7.33-3.29,7.33-7.35M100.44,108.21c0,6.34-5.12,11.48-11.45,11.48s-11.45-5.14-11.45-11.48,5.12-11.48,11.45-11.48,11.45,5.14,11.45,11.48M98.55,93.79h-15.05v-22.33h15.01v3.89h-10.3v5.32h9.53v3.89h-9.53v5.33h10.34v3.89ZM79.63,85.96c0,1.63-.39,3.05-1.16,4.28-.77,1.22-1.85,2.17-3.23,2.85s-3,1.02-4.84,1.02-3.46-.34-4.85-1.02c-1.39-.68-2.46-1.63-3.23-2.85-.77-1.22-1.15-2.65-1.15-4.28v-14.5h4.71v14.1c0,.85.19,1.61.56,2.27.37.66.9,1.18,1.58,1.56.68.38,1.47.57,2.38.57s1.71-.19,2.39-.57c.68-.38,1.2-.9,1.58-1.56.37-.66.56-1.42.56-2.27v-14.1h4.71v14.5ZM58.52,113.21c0,1.18-.29,2.24-.88,3.17s-1.44,1.66-2.58,2.2c-1.14.54-2.54.81-4.21.81h-9.52v-22.33h8.92c1.64,0,3.01.24,4.1.73,1.1.49,1.92,1.16,2.47,2.02.55.86.83,1.85.83,2.97,0,.87-.17,1.64-.52,2.3-.35.66-.83,1.2-1.43,1.61-.61.42-1.3.71-2.07.89v.22c.85.04,1.64.28,2.39.72.74.44,1.35,1.06,1.81,1.86.46.8.7,1.74.7,2.84M58.1,79.02c0,1.48-.32,2.79-.96,3.93-.64,1.13-1.56,2.02-2.77,2.65-1.21.63-2.67.95-4.38.95h-3.96v7.24h-4.71v-22.33h8.79c1.69,0,3.13.32,4.32.96,1.19.64,2.1,1.53,2.72,2.67.63,1.14.94,2.45.94,3.93M61.92,97.05h4.71v18.44h9.55v3.89h-14.26v-22.33ZM127.28,146.18V53.02L69.95,9.91,12.61,53.02v93.16h114.67Z" class="cls-1"></path><polygon points="15.23 157.01 18.11 157.01 18.11 167.51 24.64 167.51 24.64 170.14 15.23 170.14 15.23 157.01" class="cls-1"></polygon><path d="M34.32,164.64l-1.74-4.26-1.74,4.26h3.48ZM31.29,156.92h2.66l5.61,13.22h-3.01l-1.2-2.94h-5.53l-1.2,2.94h-2.93l5.61-13.22Z" class="cls-1"></path><path d="M50.06,159.64v7.88h2.22c.59,0,1.12-.09,1.61-.28.49-.19.9-.45,1.24-.8.34-.35.61-.76.8-1.23.19-.47.29-1,.29-1.59v-.04c0-.57-.1-1.1-.29-1.58-.19-.49-.46-.9-.8-1.25-.34-.35-.76-.62-1.24-.81-.49-.19-1.02-.29-1.61-.29h-2.22ZM47.18,157.01h5.1c1.02,0,1.96.17,2.81.5.85.33,1.59.79,2.21,1.38.62.59,1.09,1.28,1.43,2.07.34.79.51,1.65.51,2.58v.04c0,.93-.17,1.79-.51,2.59-.34.8-.81,1.49-1.43,2.08-.62.59-1.35,1.05-2.21,1.39-.85.34-1.79.51-2.81.51h-5.1v-13.12Z" class="cls-1"></path><polygon points="61.8 157.01 71.66 157.01 71.66 159.58 64.64 159.58 64.64 162.24 70.81 162.24 70.81 164.81 64.64 164.81 64.64 167.57 71.75 167.57 71.75 170.14 61.8 170.14 61.8 157.01" class="cls-1"></polygon><polygon points="74.33 157.01 77.21 157.01 77.21 162.21 82.52 162.21 82.52 157.01 85.4 157.01 85.4 170.14 82.52 170.14 82.52 164.87 77.21 164.87 77.21 170.14 74.33 170.14 74.33 157.01" class="cls-1"></polygon><polygon points="88.54 157.01 98.39 157.01 98.39 159.58 91.38 159.58 91.38 162.24 97.55 162.24 97.55 164.81 91.38 164.81 91.38 167.57 98.48 167.57 98.48 170.14 88.54 170.14 88.54 157.01" class="cls-1"></polygon><path d="M105.72,170.32c-1,0-1.98-.17-2.93-.52-.96-.34-1.83-.87-2.62-1.58l1.7-2.04c.6.49,1.21.88,1.84,1.16.63.29,1.32.43,2.07.43.6,0,1.06-.11,1.39-.33.33-.22.49-.52.49-.91v-.04c0-.19-.03-.35-.1-.5-.07-.14-.2-.28-.39-.4-.19-.12-.46-.25-.8-.38-.34-.12-.79-.26-1.34-.39-.66-.16-1.26-.34-1.79-.54s-.99-.45-1.36-.74c-.37-.29-.66-.66-.87-1.1-.21-.44-.31-.98-.31-1.63v-.04c0-.6.11-1.14.33-1.62.22-.48.54-.9.94-1.25.4-.35.88-.62,1.44-.81.56-.19,1.17-.28,1.85-.28.96,0,1.84.14,2.64.43.8.29,1.54.7,2.22,1.24l-1.5,2.17c-.59-.4-1.16-.72-1.72-.95-.56-.23-1.12-.35-1.68-.35s-.98.11-1.26.33c-.28.22-.42.49-.42.82v.04c0,.21.04.4.12.55.08.16.23.3.44.42.21.12.5.24.87.36.37.11.83.24,1.39.39.66.18,1.25.37,1.77.59.52.22.95.48,1.31.79.35.31.62.67.8,1.08.18.41.27.91.27,1.48v.04c0,.65-.12,1.23-.35,1.74-.23.51-.56.93-.98,1.27-.42.34-.92.61-1.51.79-.58.18-1.23.27-1.94.27" class="cls-1"></path><path d="M120.54,164.64l-1.74-4.26-1.74,4.26h3.48ZM117.52,156.92h2.66l5.61,13.22h-3.01l-1.2-2.94h-5.53l-1.2,2.94h-2.93l5.61-13.22Z" class="cls-1"></path></svg>